<?xml version="1.0" encoding="utf-8"?>
<!-- Generator: Adobe Illustrator 22.0.1, SVG Export Plug-In . SVG Version: 6.00 Build 0)  -->
<svg version="1.1" xmlns="http://www.w3.org/2000/svg" xmlns:xlink="http://www.w3.org/1999/xlink" x="0px" y="0px"
	 viewBox="0 0 500 284" style="enable-background:new 0 0 500 284;" xml:space="preserve">
<style type="text/css">
	.st0{fill:none;stroke:#071626;stroke-width:6;stroke-miterlimit:10;}
	.st1{fill:#071626;}
	.st2{fill:#F5AA3B;}
	.st3{display:none;}
	.st4{display:inline;fill:none;stroke:#000000;stroke-width:2;stroke-miterlimit:10;}
</style>
<g id="Camada_1">
	<path class="st0" d="M484.3,278H15.5c-4.6-4.6-7.1-7.1-11.7-11.7V17.4c4.6-4.6,7.1-7.1,11.7-11.7h468.8c4.6,4.6,7.1,7.1,11.7,11.7
		v248.9C491.4,270.9,488.9,273.4,484.3,278z"/>
	<g>
		<path class="st1" d="M101.7,32.2H78.5v37.7h21.3v7.9H78.5v45.9h-8.8V24.4h32V32.2z"/>
		<path class="st1" d="M148.2,123.7h-8.3V122c-3.4,0.5-6.7,0.9-10.1,1.3c-4.1,0.5-7.4,0.8-10.1,0.8c-4.6,0-6.9-2.3-6.9-6.9V62h8.3
			v54.2l18.7-0.5V62h8.3V123.7z"/>
		<path class="st1" d="M184.1,123.7h-12c-4.7,0-7.1-2.4-7.1-7.2V69.4h-7.4V62h7.4V42.8h8.3V62h10.8v7.4h-10.8v46.9h10.8V123.7z"/>
		<path class="st1" d="M230.3,123.7H222V122c-3.4,0.5-6.7,0.9-10.1,1.3c-4.1,0.5-7.4,0.8-10.1,0.8c-4.6,0-6.9-2.3-6.9-6.9V62h8.3
			v54.2l18.7-0.5V62h8.3V123.7z"/>
		<path class="st1" d="M276.3,82.3H268V69.5L252.5,70v53.7H244V62h8.4v1.7c2.8-0.4,5.6-0.9,8.4-1.3c3.4-0.5,6.2-0.8,8.4-0.8
			c4.7,0,7,2.3,7,6.9V82.3z"/>
		<path class="st1" d="M321.9,123.7h-8.3V122c-3.3,0.5-6.7,0.9-10,1.3c-4.1,0.5-7.5,0.8-10,0.8c-4.6,0-6.9-2.3-6.9-6.9V94.7
			c0-4.7,2.4-7.1,7.2-7.1h19.9V69h-18.1v10.5h-8.2V69.2c0-4.8,2.4-7.2,7.1-7.2h20.3c4.7,0,7.1,2.4,7.1,7.2V123.7z M313.8,116V94.2
			h-18.8v22.2L313.8,116z"/>
	</g>
	<g>
		<path class="st2" d="M345.2,161.3h-16.1V246h-14.5v-84.7h-16.1v-12.9h46.7V161.3z"/>
		<path class="st2" d="M392.6,238.2c0,5.2-2.7,7.8-8,7.8H360c-5.4,0-8-2.6-8-7.8v-47.4c0-5.2,2.7-7.8,8-7.8h24.6c5.4,0,8,2.6,8,7.8
			v23.1l-3.9,3.9h-23.1v17.7H379V225h13.7V238.2z M379,208.6v-15.1h-13.4v15.1H379z"/>
		<path class="st2" d="M443.8,238.2c0,5.2-2.6,7.8-7.9,7.8h-24.8c-5.4,0-8-2.6-8-7.8v-47.4c0-5.2,2.7-7.8,8-7.8h24.8
			c5.3,0,7.9,2.6,7.9,7.8v15h-13.9v-10.9H417v39.2h12.8v-12h13.9V238.2z"/>
	</g>
</g>
<g id="Camada_2" class="st3">
	<polygon class="st4" points="162.3,233.6 111.6,233.6 86.2,277.6 111.6,321.5 162.3,321.5 187.7,277.6 	"/>
	<polygon class="st4" points="238,189.4 187.3,189.4 161.9,233.3 187.3,277.2 238,277.2 263.4,233.3 	"/>
	<polygon class="st4" points="237.5,101.3 186.8,101.3 161.4,145.2 186.8,189.2 237.5,189.2 262.9,145.2 	"/>
	<polygon class="st4" points="314.2,145.6 263.5,145.6 238.1,189.5 263.5,233.4 314.2,233.4 339.6,189.5 	"/>
	<polygon class="st4" points="313.7,233.6 263,233.6 237.6,277.6 263,321.5 313.7,321.5 339.1,277.6 	"/>
	<polygon class="st4" points="389.9,189.9 339.2,189.9 313.8,233.8 339.2,277.7 389.9,277.7 415.3,233.8 	"/>
	<polygon class="st4" points="466.6,233.6 415.9,233.6 390.6,277.6 415.9,321.5 466.6,321.5 492,277.6 	"/>
	<polygon class="st4" points="161.3,145.6 110.6,145.6 85.2,189.5 110.6,233.4 161.3,233.4 186.6,189.5 	"/>
	<polygon class="st4" points="85.1,101.3 34.4,101.3 9,145.2 34.4,189.2 85.1,189.2 110.4,145.2 	"/>
	<polygon class="st4" points="161.3,57.5 110.6,57.5 85.2,101.5 110.6,145.4 161.3,145.4 186.6,101.5 	"/>
	<polygon class="st4" points="237.5,13.2 186.8,13.2 161.4,57.2 186.8,101.1 237.5,101.1 262.9,57.2 	"/>
	<polygon class="st4" points="86.1,189.9 35.4,189.9 10,233.8 35.4,277.7 86.1,277.7 111.5,233.8 	"/>
	<polygon class="st4" points="389.9,101.8 339.2,101.8 313.8,145.7 339.2,189.7 389.9,189.7 415.3,145.7 	"/>
	<polygon class="st4" points="314.2,57.5 263.5,57.5 238.1,101.5 263.5,145.4 314.2,145.4 339.6,101.5 	"/>
</g>
</svg>
