<?xml version="1.0" encoding="utf-8"?>
<!-- Generator: Adobe Illustrator 22.0.1, SVG Export Plug-In . SVG Version: 6.00 Build 0)  -->
<svg version="1.1" id="Camada_1" xmlns="http://www.w3.org/2000/svg" xmlns:xlink="http://www.w3.org/1999/xlink" x="0px" y="0px"
	 viewBox="0 0 500 500" style="enable-background:new 0 0 500 500;" xml:space="preserve">
<g>
	<path d="M367.3,37c11.2,0,20.3,9.1,20.3,20.3v385.3c0,11.2-9.1,20.3-20.3,20.3H132.7c-11.2,0-20.3-9.1-20.3-20.3V57.3
		c0-11.2,9.1-20.3,20.3-20.3H367.3 M367.3,29H132.7c-15.6,0-28.3,12.7-28.3,28.3v385.3c0,15.6,12.7,28.3,28.3,28.3h234.7
		c15.6,0,28.3-12.7,28.3-28.3V57.3C395.7,41.7,383,29,367.3,29L367.3,29z"/>
</g>
<g>
	<path d="M160.7,274.3c-13.4,0-24.3-10.9-24.3-24.3c0-13.4,10.9-24.3,24.3-24.3h178.7c13.4,0,24.3,10.9,24.3,24.3
		c0,13.4-10.9,24.3-24.3,24.3H160.7z"/>
	<path d="M339.3,229.7c11.2,0,20.3,9.1,20.3,20.3c0,11.2-9.1,20.3-20.3,20.3H160.7c-11.2,0-20.3-9.1-20.3-20.3
		c0-11.2,9.1-20.3,20.3-20.3H339.3 M339.3,221.7H160.7c-15.6,0-28.3,12.7-28.3,28.3v0c0,15.6,12.7,28.3,28.3,28.3h178.7
		c15.6,0,28.3-12.7,28.3-28.3v0C367.7,234.4,355,221.7,339.3,221.7L339.3,221.7z"/>
</g>
<g>
	<path d="M160.7,144.3c-13.4,0-24.3-10.9-24.3-24.3c0-13.4,10.9-24.3,24.3-24.3h178.7c13.4,0,24.3,10.9,24.3,24.3
		c0,13.4-10.9,24.3-24.3,24.3H160.7z"/>
	<path d="M339.3,99.7c11.2,0,20.3,9.1,20.3,20.3c0,11.2-9.1,20.3-20.3,20.3H160.7c-11.2,0-20.3-9.1-20.3-20.3
		c0-11.2,9.1-20.3,20.3-20.3H339.3 M339.3,91.7H160.7c-15.6,0-28.3,12.7-28.3,28.3v0c0,15.6,12.7,28.3,28.3,28.3h178.7
		c15.6,0,28.3-12.7,28.3-28.3v0C367.7,104.4,355,91.7,339.3,91.7L339.3,91.7z"/>
</g>
<g>
	<path d="M160.7,400.3c-13.4,0-24.3-10.9-24.3-24.3c0-13.4,10.9-24.3,24.3-24.3h178.7c13.4,0,24.3,10.9,24.3,24.3
		c0,13.4-10.9,24.3-24.3,24.3H160.7z"/>
	<path d="M339.3,355.7c11.2,0,20.3,9.1,20.3,20.3c0,11.2-9.1,20.3-20.3,20.3H160.7c-11.2,0-20.3-9.1-20.3-20.3
		c0-11.2,9.1-20.3,20.3-20.3H339.3 M339.3,347.7H160.7c-15.6,0-28.3,12.7-28.3,28.3v0c0,15.6,12.7,28.3,28.3,28.3h178.7
		c15.6,0,28.3-12.7,28.3-28.3v0C367.7,360.4,355,347.7,339.3,347.7L339.3,347.7z"/>
</g>
</svg>
