<?xml version="1.0" encoding="utf-8"?>
<!-- Generator: Adobe Illustrator 22.0.1, SVG Export Plug-In . SVG Version: 6.00 Build 0)  -->
<svg version="1.1" id="Camada_1" xmlns="http://www.w3.org/2000/svg" xmlns:xlink="http://www.w3.org/1999/xlink" x="0px" y="0px"
	 viewBox="0 0 500 500" style="enable-background:new 0 0 500 500;" xml:space="preserve">
<style type="text/css">
	.st0{fill:none;stroke:#99004D;stroke-width:2;stroke-miterlimit:10;}
</style>
<polygon class="st0" points="160.7,317.6 109,317.6 83.1,362.3 109,407.1 160.7,407.1 186.5,362.3 "/>
<polygon class="st0" points="237.8,272.4 186.1,272.4 160.3,317.2 186.1,361.9 237.8,361.9 263.6,317.2 "/>
<polygon class="st0" points="237.3,182.7 185.6,182.7 159.7,227.5 185.6,272.2 237.3,272.2 263.1,227.5 "/>
<polygon class="st0" points="315.4,227.8 263.7,227.8 237.9,272.6 263.7,317.4 315.4,317.4 341.3,272.6 "/>
<polygon class="st0" points="314.9,317.6 263.2,317.6 237.4,362.3 263.2,407.1 314.9,407.1 340.7,362.3 "/>
<polygon class="st0" points="392.6,273 340.9,273 315,317.7 340.9,362.5 392.6,362.5 418.4,317.7 "/>
<polygon class="st0" points="470.7,317.6 419.1,317.6 393.2,362.3 419.1,407.1 470.7,407.1 496.6,362.3 "/>
<polygon class="st0" points="159.6,227.8 107.9,227.8 82.1,272.6 107.9,317.4 159.6,317.4 185.4,272.6 "/>
<polygon class="st0" points="81.9,182.7 30.3,182.7 4.4,227.5 30.3,272.2 81.9,272.2 107.8,227.5 "/>
<polygon class="st0" points="159.6,138.1 107.9,138.1 82.1,182.9 107.9,227.6 159.6,227.6 185.4,182.9 "/>
<polygon class="st0" points="237.3,93 185.6,93 159.7,137.8 185.6,182.5 237.3,182.5 263.1,137.8 "/>
<polygon class="st0" points="83,273 31.3,273 5.5,317.7 31.3,362.5 83,362.5 108.8,317.7 "/>
<polygon class="st0" points="392.6,183.2 340.9,183.2 315,228 340.9,272.8 392.6,272.8 418.4,228 "/>
<polygon class="st0" points="315.4,138.1 263.7,138.1 237.9,182.9 263.7,227.6 315.4,227.6 341.3,182.9 "/>
</svg>
