<?xml version="1.0" encoding="utf-8"?>
<!-- Generator: Adobe Illustrator 22.0.1, SVG Export Plug-In . SVG Version: 6.00 Build 0)  -->
<svg version="1.1" xmlns="http://www.w3.org/2000/svg" xmlns:xlink="http://www.w3.org/1999/xlink" x="0px" y="0px"
	 viewBox="0 0 500 52" style="enable-background:new 0 0 500 52;" xml:space="preserve">
<style type="text/css">
	.st0{display:none;}
	.st1{display:inline;fill:none;stroke:#99004D;stroke-width:2;stroke-miterlimit:10;}
	.st2{fill:none;stroke:#000000;stroke-miterlimit:10;}
</style>
<g id="Camada_1" class="st0">
	<polygon class="st1" points="160.7,84.6 109,84.6 83.1,129.3 109,174.1 160.7,174.1 186.5,129.3 	"/>
	<polygon class="st1" points="237.8,39.4 186.1,39.4 160.3,84.2 186.1,128.9 237.8,128.9 263.6,84.2 	"/>
	<polygon class="st1" points="237.3,-50.3 185.6,-50.3 159.7,-5.5 185.6,39.2 237.3,39.2 263.1,-5.5 	"/>
	<polygon class="st1" points="315.4,-5.2 263.7,-5.2 237.9,39.6 263.7,84.4 315.4,84.4 341.3,39.6 	"/>
	<polygon class="st1" points="314.9,84.6 263.2,84.6 237.4,129.3 263.2,174.1 314.9,174.1 340.7,129.3 	"/>
	<polygon class="st1" points="392.6,40 340.9,40 315,84.7 340.9,129.5 392.6,129.5 418.4,84.7 	"/>
	<polygon class="st1" points="470.7,84.6 419.1,84.6 393.2,129.3 419.1,174.1 470.7,174.1 496.6,129.3 	"/>
	<polygon class="st1" points="159.6,-5.2 107.9,-5.2 82.1,39.6 107.9,84.4 159.6,84.4 185.4,39.6 	"/>
	<polygon class="st1" points="81.9,-50.3 30.3,-50.3 4.4,-5.5 30.3,39.2 81.9,39.2 107.8,-5.5 	"/>
	<polygon class="st1" points="159.6,-94.9 107.9,-94.9 82.1,-50.1 107.9,-5.4 159.6,-5.4 185.4,-50.1 	"/>
	<polygon class="st1" points="237.3,-140 185.6,-140 159.7,-95.2 185.6,-50.5 237.3,-50.5 263.1,-95.2 	"/>
	<polygon class="st1" points="83,40 31.3,40 5.5,84.7 31.3,129.5 83,129.5 108.8,84.7 	"/>
	<polygon class="st1" points="392.6,-49.8 340.9,-49.8 315,-5 340.9,39.8 392.6,39.8 418.4,-5 	"/>
	<polygon class="st1" points="315.4,-94.9 263.7,-94.9 237.9,-50.1 263.7,-5.4 315.4,-5.4 341.3,-50.1 	"/>
</g>
<g id="Camada_2">
	<polyline class="st2" points="4,46.6 4,24.7 24,4.7 496,6.5 	"/>
</g>
</svg>
